<?xml version="1.0" encoding="utf-8"?>
<!-- Generator: Adobe Illustrator 19.0.0, SVG Export Plug-In . SVG Version: 6.00 Build 0)  -->
<svg version="1.1" id="Layer_1" xmlns="http://www.w3.org/2000/svg" xmlns:xlink="http://www.w3.org/1999/xlink" x="0px" y="0px"
	 viewBox="-210 395.9 174 50" style="enable-background:new -210 395.9 174 50;" xml:space="preserve">
<style type="text/css">
	.st0{fill:#FFFFFF;}
	.st1{fill:#FFFFFF;stroke:#000000;stroke-width:0.5;stroke-miterlimit:10;}
	.st2{fill:#ACD036;}
	.st3{fill:#FFFFFF;stroke:#FFFFFF;stroke-width:0.7;stroke-miterlimit:10;}
	.st4{fill:#ACD036;stroke:#ACD036;stroke-width:0.7;stroke-miterlimit:10;}
</style>
<text transform="matrix(1 0 0 1 -360.683 831.8972)" style="display:none;enable-background:new    ; font-family:'ArialMT'; font-size:45px;">Stellar</text>
<path id="XMLID_12_" class="st0" d="M-110,410.2c0.1,0,0.2,0,0.2-0.1c-0.1-0.5-0.1-1.1-0.3-1.5c-0.6-1.4-1.7-2.3-3-3
	c-3-1.5-6.2-1.6-9.4-1.7c-3.7-0.1-7.3,0-11,0.2c-2.5,0.1-5,0.3-7.5,0.6c-3.6,0.3-7.1,1.4-10.3,3.1c-5.8,3-10,7.3-11.3,14
	c-0.7,3.7-2.5,7-5.7,9.2c-2.5,1.8-5.5,2.4-8.5,2.7c-4,0.4-8,0.4-12-0.4c-4.6-0.9-8-3.2-9.2-8.1c-1-4.4-1.3-8.9-0.8-13.4
	c0.2-2.1,1.4-3.7,3.6-4.1c2.4-0.4,4.8-0.9,7.3-1c4.8-0.2,9.5-0.1,14.2,0.8c2.7,0.5,5.4,1,8,1.8c1.9,0.5,3.4,1.7,3.9,3.8
	c0.2,0.8,0.2,1.7,0.4,2.7c1.6-2.8,3.8-4.8,6.2-6.8c-1.1-1-2.4-1.6-3.8-1.9c-2.6-0.5-5.2-1-7.7-1.4s-5-0.8-7.5-1.1
	c-2.2-0.3-4.5-0.4-6.7-0.6c-3.6-0.3-7.2-0.6-10.9-0.7c-3.5-0.1-7,0-10.4,0.2c-1.5,0.1-3,0.5-4.4,0.8c-0.6,0.1-1.1,0.5-1,1.2
	c0.2,1.6,0.4,3.1,0.6,4.7c0.1,1,0.1,1.9,1.5,2.1c1.3,0.2,1.7,1.3,2,2.3c0.3,0.8,0.4,1.5,0.6,2.3c1,3.5,1.9,7.1,3.2,10.6
	c1.2,3.6,3.5,6.4,7.4,7.4c2.4,0.6,4.8,1.2,7.3,1.7c1.8,0.3,3.6,0.4,5.4,0.3c1.9-0.1,3.8-0.4,5.7-0.7c5.1-1,9.3-3.7,12.4-7.8
	c2-2.7,3.6-5.7,5.2-8.6c2.3-4.1,5.4-7.5,9.8-9.5c5.6-2.6,11.5-3.4,17.5-3.6c4.9-0.2,9.9,0.2,14.8,0.8
	C-112.7,407.8-111,408.5-110,410.2z M-112.2,432.3c-0.6,0.2-1,0.3-1.3,0.5c-3.9,2.1-8.2,2.1-12.5,2.1c-1.9,0-3.8-0.3-5.7-0.5
	c-3.7-0.6-7.2-1.9-9.8-4.7c-3.4-3.6-5.7-8-7.8-12.5c-0.5-1.1-1-2.1-1.6-3.2c-2.3,2.1-4,4.4-5.3,7.1c2-0.5,3.6-0.2,4.7,1.4
	c1.2,1.6,2.3,3.3,3.6,4.9c2.9,3.4,6,6.6,10.2,8.2c6,2.2,12.3,2.3,18.5,0.8C-116.5,435.7-114.3,434.5-112.2,432.3z"/>
<path id="XMLID_9_" class="st1" d="M-110,410.2c-1-1.7-2.7-2.4-4.6-2.6c-4.9-0.6-9.8-1-14.8-0.8c-6,0.2-11.9,1-17.5,3.6
	c-4.4,2-7.4,5.4-9.8,9.5c-1.7,2.9-3.2,5.9-5.2,8.6c-3.1,4.1-7.2,6.8-12.4,7.8c-1.9,0.3-3.7,0.5-5.6,0.6c-1.8,0.1-3.7,0-5.5-0.2
	c-2.8-0.3-5-0.9-7.3-1.7c-3.4-1-6.1-3.8-7.4-7.4c-1.2-3.5-2.1-7.1-3.2-10.6c-0.2-0.8-0.4-1.6-0.6-2.3c-0.3-1-0.8-2.2-2-2.3
	c-1.3-0.2-1.4-1.2-1.5-2.1c-0.2-1.6-0.4-3.1-0.6-4.7c-0.1-0.8,0.4-1.1,1-1.2c1.5-0.3,2.9-0.7,4.4-0.8c3.5-0.2,7-0.3,10.4-0.2
	c3.6,0.1,7.2,0.5,10.9,0.7c2.2,0.2,4.5,0.3,6.7,0.6c2.5,0.3,5,0.7,7.5,1.1c2.6,0.4,5.2,0.9,7.7,1.4c1.4,0.3,2.7,0.9,3.8,1.9
	c-2.4,2-4.6,4-6.2,6.8c-0.1-1-0.2-1.8-0.4-2.7c-0.5-2.1-2-3.3-3.9-3.8c-2.6-0.8-5.3-1.3-8-1.8c-4.7-0.9-9.5-0.9-14.2-0.8
	c-2.4,0.1-4.9,0.5-7.3,1c-2.2,0.4-3.4,2-3.6,4.1c-0.5,4.5-0.3,9,0.8,13.4c1.1,4.9,4.6,7.2,9.2,8.1c4,0.8,8,0.8,12,0.4
	c3-0.3,6-0.9,8.5-2.7c3.2-2.3,5-5.6,5.7-9.2c1.3-6.7,5.5-11,11.3-14c3.2-1.7,6.6-2.8,10.3-3.1c2.5-0.2,5-0.5,7.5-0.6
	c3.7-0.1,7.3-0.2,11-0.2c3.2,0.1,6.5,0.2,9.4,1.7c1.3,0.7,2.4,1.6,3,3c0.2,0.5,0.2,1,0.3,1.5C-109.8,410.2-109.9,410.2-110,410.2z
	 M-204.9,407.7c0.8,1.1,3.6,1.6,4.6,0.8c0.5-0.4,0.3-0.7-0.2-0.9C-201.9,406.7-203.4,406.9-204.9,407.7z"/>
<path id="XMLID_1_" class="st2" d="M-112.2,432.3c-2,2.2-4.3,3.4-6.9,4.1c-6.2,1.5-12.5,1.4-18.5-0.8c-4.2-1.6-7.4-4.8-10.2-8.2
	c-1.3-1.5-2.4-3.2-3.6-4.9c-1.2-1.7-2.8-2-4.7-1.4c1.3-2.8,3-5.1,5.3-7.1c0.6,1.1,1.1,2.2,1.6,3.2c2.1,4.5,4.4,8.9,7.8,12.5
	c2.6,2.7,6.1,4.1,9.8,4.7c1.9,0.3,3.8,0.5,5.7,0.5c4.3,0,8.6,0,12.5-2.1C-113.2,432.6-112.8,432.5-112.2,432.3z"/>
<g>
	<path class="st3" d="M-136.9,417.5c0-3.3,2.6-5.8,6.1-5.8c3.5,0,6.1,2.5,6.1,5.8s-2.6,5.8-6.1,5.8
		C-134.3,423.3-136.9,420.8-136.9,417.5z M-126.8,417.5c0-2.3-1.7-4-4-4s-4,1.7-4,4s1.7,4,4,4S-126.8,419.8-126.8,417.5z"/>
	<path class="st3" d="M-113.5,418.8c0,2.7-1.9,4.4-4.4,4.4c-1.1,0-2.1-0.4-2.8-1.2v4.2h-2v-11.8h1.9v1.1c0.7-0.8,1.7-1.2,2.9-1.2
		C-115.4,414.4-113.5,416.2-113.5,418.8z M-115.5,418.8c0-1.6-1.1-2.7-2.6-2.7s-2.6,1-2.6,2.7c0,1.6,1.1,2.7,2.6,2.7
		S-115.5,420.5-115.5,418.8z"/>
	<path class="st3" d="M-106.4,422.7c-0.5,0.4-1.2,0.6-1.9,0.6c-1.9,0-3-1-3-2.9v-4.1h-1.4v-1.6h1.4v-2h2v2h2.3v1.6h-2.3v4.1
		c0,0.8,0.4,1.3,1.2,1.3c0.4,0,0.8-0.1,1.1-0.4L-106.4,422.7z"/>
	<path class="st3" d="M-105.7,418.8c0-2.6,1.9-4.4,4.6-4.4s4.6,1.8,4.6,4.4s-1.9,4.4-4.6,4.4C-103.8,423.3-105.7,421.4-105.7,418.8z
		 M-98.6,418.8c0-1.6-1.1-2.7-2.6-2.7s-2.6,1-2.6,2.7c0,1.6,1.1,2.7,2.6,2.7S-98.6,420.5-98.6,418.8z"/>
	<path class="st3" d="M-95.6,422.3l0.8-1.5c0.8,0.5,1.9,0.9,3,0.9c1.3,0,1.8-0.4,1.8-1c0-1.6-5.3-0.1-5.3-3.5c0-1.6,1.5-2.7,3.8-2.7
		c1.1,0,2.5,0.3,3.2,0.7l-0.8,1.5c-0.8-0.5-1.6-0.6-2.5-0.6c-1.2,0-1.8,0.4-1.8,1c0,1.7,5.3,0.2,5.3,3.6c0,1.6-1.5,2.7-3.9,2.7
		C-93.4,423.3-94.8,422.8-95.6,422.3z"/>
	<path class="st3" d="M-86.6,411.9c0-0.7,0.5-1.2,1.3-1.2s1.3,0.5,1.3,1.2s-0.5,1.3-1.3,1.3C-86,413.1-86.6,412.6-86.6,411.9z
		 M-86.3,414.5h2v8.6h-2V414.5z"/>
	<path class="st3" d="M-73.2,418.2v4.9h-2v-4.7c0-1.5-0.8-2.3-2.1-2.3c-1.4,0-2.4,0.9-2.4,2.6v4.4h-2v-8.6h1.9v1.1
		c0.7-0.8,1.7-1.2,3-1.2C-74.7,414.4-73.2,415.6-73.2,418.2z"/>
	<path class="st3" d="M-65.4,422.7c-0.5,0.4-1.2,0.6-1.9,0.6c-1.9,0-3-1-3-2.9v-4.1h-1.4v-1.6h1.4v-2h2v2h2.3v1.6h-2.3v4.1
		c0,0.8,0.4,1.3,1.2,1.3c0.4,0,0.8-0.1,1.1-0.4L-65.4,422.7z"/>
	<path class="st3" d="M-56,419.5h-6.8c0.2,1.3,1.3,2.1,2.8,2.1c1,0,1.7-0.3,2.3-0.9l1.1,1.2c-0.8,0.9-2,1.4-3.5,1.4
		c-2.9,0-4.8-1.9-4.8-4.4s1.9-4.4,4.5-4.4c2.5,0,4.4,1.8,4.4,4.5C-55.9,419.1-56,419.3-56,419.5z M-62.7,418.1h4.9
		c-0.2-1.2-1.1-2.1-2.4-2.1C-61.6,416-62.6,416.9-62.7,418.1z"/>
	<path class="st3" d="M-47.4,421.5v1.6h-7.4v-1.3l4.7-5.7h-4.6v-1.6h7.2v1.3l-4.7,5.7H-47.4z"/>
	<path class="st3" d="M-38.3,418.1v5.1h-1.9v-1c-0.5,0.7-1.4,1.2-2.7,1.2c-2,0-3.2-1.1-3.2-2.6c0-1.4,1-2.6,3.6-2.6h2.2V418
		c0-1.2-0.7-1.9-2.1-1.9c-1,0-2,0.3-2.6,0.9l-0.8-1.5c0.9-0.7,2.3-1.1,3.6-1.1C-39.7,414.4-38.3,415.6-38.3,418.1z M-40.3,420.5v-1
		h-2.1c-1.4,0-1.7,0.5-1.7,1.1c0,0.7,0.6,1.2,1.6,1.2C-41.5,421.8-40.6,421.3-40.3,420.5z"/>
</g>
<g>
	<path class="st4" d="M-99.2,437.6v-7.5l-3.7,6.2h-0.9l-3.7-6.1v7.4h-2v-11.3h1.7l4.5,7.5l4.4-7.5h1.7v11.3H-99.2z"/>
	<path class="st4" d="M-87.2,432.6v5.1h-1.9v-1c-0.5,0.7-1.4,1.2-2.7,1.2c-2,0-3.2-1.1-3.2-2.6c0-1.4,1-2.6,3.6-2.6h2.2v-0.1
		c0-1.2-0.7-1.9-2.1-1.9c-1,0-2,0.3-2.6,0.9l-0.9-1.6c0.9-0.7,2.3-1.1,3.6-1.1C-88.6,428.9-87.2,430.1-87.2,432.6z M-89.2,434.9v-1
		h-2.1c-1.4,0-1.7,0.5-1.7,1.1c0,0.7,0.6,1.2,1.6,1.2C-90.4,436.3-89.5,435.8-89.2,434.9z"/>
	<path class="st4" d="M-79.6,428.9v1.9c-0.2,0-0.3,0-0.5,0c-1.5,0-2.5,0.9-2.5,2.7v4.2h-2V429h1.9v1.3
		C-82.1,429.4-81,428.9-79.6,428.9z"/>
	<path class="st4" d="M-69.4,429v7.3c0,3.1-1.6,4.6-4.6,4.6c-1.6,0-3.2-0.4-4.2-1.2l0.9-1.5c0.8,0.6,2,1,3.2,1
		c1.9,0,2.7-0.9,2.7-2.6v-0.5c-0.7,0.8-1.7,1.1-2.9,1.1c-2.5,0-4.4-1.7-4.4-4.2s1.9-4.1,4.4-4.1c1.2,0,2.3,0.4,3,1.2V429H-69.4z
		 M-71.4,433.1c0-1.5-1.1-2.4-2.6-2.4s-2.6,1-2.6,2.4c0,1.5,1.1,2.5,2.6,2.5C-72.5,435.5-71.4,434.5-71.4,433.1z"/>
	<path class="st4" d="M-66.8,425.6h2v12h-2V425.6z"/>
	<path class="st4" d="M-54.9,432.6v5.1h-1.9v-1c-0.5,0.7-1.4,1.2-2.7,1.2c-2,0-3.2-1.1-3.2-2.6c0-1.4,1-2.6,3.6-2.6h2.2v-0.1
		c0-1.2-0.7-1.9-2.1-1.9c-1,0-2,0.3-2.6,0.9l-0.8-1.5c0.9-0.7,2.3-1.1,3.6-1.1C-56.3,428.9-54.9,430.1-54.9,432.6z M-56.9,434.9v-1
		H-59c-1.4,0-1.7,0.5-1.7,1.1c0,0.7,0.6,1.2,1.6,1.2C-58.1,436.3-57.3,435.8-56.9,434.9z"/>
	<path class="st4" d="M-53.3,436.8l0.8-1.5c0.8,0.5,1.9,0.9,3,0.9c1.3,0,1.8-0.4,1.8-1c0-1.6-5.3-0.1-5.3-3.5c0-1.6,1.5-2.7,3.8-2.7
		c1.1,0,2.5,0.3,3.2,0.7l-0.8,1.5c-0.8-0.5-1.6-0.6-2.5-0.6c-1.2,0-1.8,0.4-1.8,1c0,1.7,5.3,0.2,5.3,3.6c0,1.6-1.5,2.7-3.9,2.7
		C-51.1,437.7-52.5,437.3-53.3,436.8z"/>
	<path class="st4" d="M-45,436.8l0.8-1.5c0.8,0.5,1.9,0.9,3,0.9c1.3,0,1.8-0.4,1.8-1c0-1.6-5.3-0.1-5.3-3.5c0-1.6,1.5-2.7,3.8-2.7
		c1.1,0,2.5,0.3,3.2,0.7l-0.8,1.5c-0.8-0.5-1.6-0.6-2.5-0.6c-1.2,0-1.8,0.4-1.8,1c0,1.7,5.3,0.2,5.3,3.6c0,1.6-1.5,2.7-3.9,2.7
		C-42.8,437.7-44.2,437.3-45,436.8z"/>
</g>
</svg>
